<?xml version="1.0" encoding="UTF-8" standalone="no"?>
<!DOCTYPE svg PUBLIC "-//W3C//DTD SVG 1.1//EN" "http://www.w3.org/Graphics/SVG/1.1/DTD/svg11.dtd">
<svg xmlns="http://www.w3.org/2000/svg" version="1.1" viewBox="0 0 64 64" width="64.0pt" height="64.0pt">
<path d="M 46.05 0.00 L 47.99 0.00 L 48.38 0.68 C 50.91 5.02 53.43 9.37 55.89 13.76 C 55.04 14.58 54.19 15.40 53.32 16.20 C 50.38 10.95 47.33 5.77 44.47 0.47 L 46.05 0.00 Z" fill="#b56425" />
<path d="M 44.47 0.47 C 47.33 5.77 50.38 10.95 53.32 16.20 C 49.90 19.51 45.77 21.39 41.26 22.74 C 38.42 17.68 35.50 12.67 32.53 7.70 C 36.24 4.73 39.87 1.94 44.47 0.47 Z" fill="#d18a58" />
<path d="M 32.53 7.70 C 35.50 12.67 38.42 17.68 41.26 22.74 C 39.97 23.80 38.69 24.87 37.40 25.93 C 34.19 20.57 31.11 15.13 28.00 9.71 C 29.53 9.07 31.05 8.44 32.53 7.70 Z" fill="#b56425" />
<path d="M 25.32 18.49 C 28.01 16.96 27.29 21.85 25.05 20.81 C 24.53 20.08 24.62 19.31 25.32 18.49 Z" fill="#c08d69" />
<path d="M 28.21 20.45 C 30.84 18.76 30.30 23.70 28.04 22.79 C 27.49 22.09 27.55 21.31 28.21 20.45 Z" fill="#c08d68" />
<path d="M 23.97 23.33 C 24.90 24.40 23.72 26.58 22.30 25.85 C 21.37 24.82 22.61 22.60 23.97 23.33 Z" fill="#bf8b66" />
<path d="M 30.22 23.12 C 32.93 21.60 32.23 26.48 29.99 25.43 C 29.46 24.71 29.53 23.94 30.22 23.12 Z" fill="#c2906d" />
<path d="M 26.31 25.80 C 28.76 25.00 27.93 28.84 26.12 28.81 C 24.66 28.37 25.31 26.39 26.31 25.80 Z" fill="#cca285" />
<path d="M 21.93 27.26 C 22.89 28.30 21.74 30.50 20.31 29.81 C 19.35 28.80 20.56 26.57 21.93 27.26 Z" fill="#be8a64" />
<path d="M 30.01 27.38 C 30.95 28.45 29.81 30.62 28.37 29.88 C 27.43 28.86 28.65 26.63 30.01 27.38 Z" fill="#c08d69" />
<path d="M 44.58 29.43 C 42.67 31.67 40.71 33.68 39.45 36.39 C 38.27 38.60 37.27 41.68 35.24 43.24 C 33.28 44.39 30.38 44.06 28.16 44.28 C 28.02 47.34 27.90 50.39 27.92 53.46 L 26.54 53.12 C 26.08 51.12 25.62 49.11 25.17 47.11 C 25.66 46.83 26.16 46.54 26.66 46.26 C 27.10 41.93 25.18 36.00 28.92 32.93 C 33.20 29.22 39.26 29.33 44.58 29.43 Z" fill="#00cc76" />
<path d="M 23.60 31.13 C 24.56 32.13 23.37 34.37 21.99 33.68 C 21.03 32.64 22.15 30.45 23.60 31.13 Z" fill="#c08d68" />
<path d="M 12.57 36.44 C 16.17 36.69 21.06 36.43 23.84 39.15 C 26.10 41.19 25.25 44.42 25.17 47.11 C 22.72 46.80 19.26 47.78 18.02 45.08 C 16.25 42.15 14.63 39.19 12.57 36.44 Z" fill="#00c874" />
<path d="M 21.95 51.43 C 23.26 51.88 24.54 52.36 25.82 52.88 L 26.54 53.12 L 27.92 53.46 L 28.80 53.63 C 31.93 52.95 35.57 52.29 38.70 53.31 C 39.79 54.32 40.69 55.59 41.62 56.75 C 42.43 57.82 43.42 58.87 43.96 60.11 C 44.47 61.86 42.69 62.95 41.63 64.00 L 10.60 64.00 C 9.69 62.85 8.15 61.60 8.52 59.98 C 9.11 58.67 10.41 57.67 11.39 56.64 C 13.52 54.02 14.55 53.39 17.88 52.66 C 19.26 52.22 20.57 51.74 21.95 51.43 Z" fill="#814913" />
<path d="M 15.33 57.17 C 20.88 57.05 26.46 56.78 32.01 56.91 C 34.19 56.88 36.09 57.67 38.07 58.47 C 30.64 59.51 22.80 58.99 15.30 58.87 L 15.33 57.17 Z" fill="#673a0f" />
</svg>