<?xml version="1.0" encoding="UTF-8" standalone="no"?>
<!DOCTYPE svg PUBLIC "-//W3C//DTD SVG 1.1//EN" "http://www.w3.org/Graphics/SVG/1.1/DTD/svg11.dtd">
<svg xmlns="http://www.w3.org/2000/svg" version="1.1" viewBox="0 0 64 64" width="64.0pt" height="64.0pt">
<path d="M 50.80 2.05 C 53.17 6.15 55.57 11.22 55.31 16.05 C 54.31 18.05 52.74 19.63 51.66 21.58 C 51.25 22.93 51.23 24.41 51.03 25.81 C 50.51 27.30 49.29 29.01 49.42 30.60 C 50.27 32.18 52.29 33.16 53.61 34.31 C 51.60 40.86 48.25 46.59 42.45 50.46 C 34.61 56.37 24.01 54.94 14.32 56.99 C 15.82 54.35 17.30 50.69 19.88 48.97 C 22.88 47.63 26.40 47.27 29.61 46.65 C 26.83 46.43 24.05 46.18 21.27 45.94 C 23.40 43.22 25.43 40.21 27.98 37.87 C 29.79 36.18 33.01 36.01 35.28 35.30 C 33.83 35.12 32.38 34.93 30.93 34.74 C 34.78 30.44 38.18 25.93 40.80 20.78 C 38.60 23.04 36.48 25.37 34.35 27.70 C 34.18 26.74 34.02 25.77 33.87 24.81 C 32.38 31.30 27.78 34.47 23.33 38.87 C 23.06 38.03 22.79 37.20 22.52 36.36 C 20.47 44.20 15.03 48.45 11.02 55.27 C 10.21 46.66 10.18 38.45 13.48 30.31 C 14.26 30.36 15.03 30.41 15.81 30.44 C 15.96 31.46 16.10 32.47 16.25 33.49 C 16.84 34.03 17.42 34.56 18.01 35.09 C 18.03 33.52 18.05 31.95 18.06 30.37 C 19.74 29.93 21.38 29.36 23.00 28.73 C 23.28 29.74 24.47 32.33 25.83 31.38 C 26.46 30.23 25.30 28.69 24.60 27.81 C 25.76 26.87 26.87 25.86 27.94 24.80 C 29.18 25.38 30.32 25.48 31.34 25.10 C 32.64 23.85 30.04 22.93 29.06 23.08 C 29.36 22.53 29.65 21.98 29.93 21.43 C 30.42 20.43 30.90 19.43 31.36 18.42 C 32.61 18.84 33.86 19.27 35.11 19.70 L 36.03 18.47 C 37.29 16.84 38.59 15.25 39.89 13.64 C 42.40 11.33 42.86 10.32 43.28 6.86 C 45.76 5.19 48.22 3.53 50.80 2.05 Z" fill="#abd37d" />
<path d="M 26.67 6.37 C 27.10 8.15 27.40 9.98 27.60 11.84 C 30.64 13.11 31.24 13.63 32.01 16.98 C 33.35 17.47 34.69 17.97 36.03 18.47 L 35.11 19.70 C 33.86 19.27 32.61 18.84 31.36 18.42 C 30.90 19.43 30.42 20.43 29.93 21.43 C 28.42 20.31 26.46 19.36 25.29 17.87 C 24.30 16.36 23.77 14.54 23.06 12.89 L 25.52 12.12 C 25.95 10.22 26.30 8.29 26.67 6.37 Z" fill="#2b313f" />
<path d="M 23.06 12.89 C 23.77 14.54 24.30 16.36 25.29 17.87 C 26.46 19.36 28.42 20.31 29.93 21.43 C 29.65 21.98 29.36 22.53 29.06 23.08 C 28.69 23.66 28.31 24.23 27.94 24.80 C 26.87 25.86 25.76 26.87 24.60 27.81 C 24.07 28.12 23.54 28.43 23.00 28.73 C 21.38 29.36 19.74 29.93 18.06 30.37 C 17.31 30.41 16.56 30.43 15.81 30.44 C 15.03 30.41 14.26 30.36 13.48 30.31 C 12.52 30.23 11.56 30.15 10.60 30.07 C 10.81 26.10 10.72 22.53 13.17 19.17 C 15.55 15.68 19.12 14.03 23.06 12.89 Z" fill="#e95d5d" />
<path d="M 40.80 20.78 C 38.18 25.93 34.78 30.44 30.93 34.74 C 32.38 34.93 33.83 35.12 35.28 35.30 C 33.01 36.01 29.79 36.18 27.98 37.87 C 25.43 40.21 23.40 43.22 21.27 45.94 C 24.05 46.18 26.83 46.43 29.61 46.65 C 26.40 47.27 22.88 47.63 19.88 48.97 C 17.30 50.69 15.82 54.35 14.32 56.99 C 13.34 58.86 12.37 60.69 11.03 62.35 C 9.73 61.98 8.88 61.27 8.50 60.22 C 9.16 58.47 10.05 56.86 11.02 55.27 C 15.03 48.45 20.47 44.20 22.52 36.36 C 22.79 37.20 23.06 38.03 23.33 38.87 C 27.78 34.47 32.38 31.30 33.87 24.81 C 34.02 25.77 34.18 26.74 34.35 27.70 C 36.48 25.37 38.60 23.04 40.80 20.78 Z" fill="#769344" />
<path d="M 29.06 23.08 C 30.04 22.93 32.64 23.85 31.34 25.10 C 30.32 25.48 29.18 25.38 27.94 24.80 C 28.31 24.23 28.69 23.66 29.06 23.08 Z" fill="#546252" />
<path d="M 24.60 27.81 C 25.30 28.69 26.46 30.23 25.83 31.38 C 24.47 32.33 23.28 29.74 23.00 28.73 C 23.54 28.43 24.07 28.12 24.60 27.81 Z" fill="#565d51" />
<path d="M 18.06 30.37 C 18.05 31.95 18.03 33.52 18.01 35.09 C 17.42 34.56 16.84 34.03 16.25 33.49 C 16.10 32.47 15.96 31.46 15.81 30.44 C 16.56 30.43 17.31 30.41 18.06 30.37 Z" fill="#636253" />
<path d="M 35.38 38.35 C 37.40 36.85 40.28 40.22 41.47 41.67 C 43.50 44.85 39.20 48.07 36.65 45.52 C 35.41 43.76 33.04 40.12 35.38 38.35 Z" fill="#ffffff" />
</svg>