<?xml version="1.0" encoding="UTF-8" standalone="no"?>
<!DOCTYPE svg PUBLIC "-//W3C//DTD SVG 1.1//EN" "http://www.w3.org/Graphics/SVG/1.1/DTD/svg11.dtd">
<svg xmlns="http://www.w3.org/2000/svg" version="1.1" viewBox="0 0 694 725" width="694.0pt" height="725.0pt">

<path d="M 284.46 71.65 C 289.11 70.32 294.23 72.05 296.84 76.18 C 299.81 80.84 298.95 87.14 294.58 90.61 C 289.56 94.96 281.48 93.50 278.17 87.80 C 274.55 81.76 277.63 73.54 284.46 71.65 Z" fill="#b3f2a4" />
<path d="M 141.38 76.42 C 145.36 74.99 149.99 76.02 152.96 79.03 C 157.38 83.54 157.05 91.15 152.12 95.14 C 147.08 99.51 139.01 98.08 135.68 92.34 C 132.16 86.52 134.96 78.67 141.38 76.42 Z" fill="#ffb3b6" />
<path d="M 479.99 79.02 C 488.99 81.15 498.66 83.65 506.70 88.30 C 513.11 91.94 519.05 96.52 524.02 101.97 C 530.73 109.41 536.87 117.31 542.12 125.85 C 547.04 133.85 551.10 142.46 554.97 151.01 C 562.54 169.51 569.00 188.19 572.15 208.00 C 576.78 234.08 579.05 259.19 586.04 283.99 C 591.43 304.97 601.16 325.07 616.12 340.90 C 625.02 350.27 634.99 358.76 643.60 368.43 C 654.15 380.56 660.72 395.80 660.59 412.03 C 660.08 426.04 655.54 439.39 648.32 451.34 C 643.14 459.65 637.53 467.62 630.70 474.67 C 613.49 492.36 594.31 507.84 572.89 520.16 C 571.64 517.38 570.62 514.69 568.77 512.22 C 534.36 467.57 500.11 422.75 465.68 378.12 C 460.24 382.31 454.93 386.69 449.33 390.66 C 442.59 381.58 435.56 372.72 428.71 363.72 C 432.65 358.99 436.68 354.31 440.41 349.41 C 454.35 330.15 464.10 307.41 467.55 283.84 C 469.96 270.68 469.53 256.73 467.71 243.52 C 465.18 220.12 456.66 197.86 443.78 178.23 C 433.35 162.70 419.86 149.18 404.59 138.41 C 395.14 132.35 385.18 126.44 374.60 122.60 C 379.44 115.82 383.93 108.61 390.20 103.19 C 404.06 90.86 420.49 81.26 438.99 78.21 C 452.62 75.71 466.44 76.42 479.99 79.02 Z" fill="#e5f2f8" />
<path d="M 194.89 104.86 C 197.15 107.20 199.23 109.78 201.30 112.29 C 204.14 109.98 206.93 107.63 209.69 105.23 C 211.48 107.25 213.27 109.28 215.06 111.30 C 212.49 113.78 209.29 115.89 207.16 118.77 C 209.32 121.95 212.12 124.71 214.57 127.68 C 212.47 129.43 210.37 131.18 208.26 132.92 C 205.71 129.94 203.14 126.98 200.58 124.01 C 197.79 126.37 195.02 128.75 192.24 131.13 C 190.48 129.06 188.72 126.99 186.97 124.90 C 189.68 122.49 192.42 120.12 195.19 117.78 C 193.03 115.21 190.86 112.64 188.70 110.07 C 190.72 108.27 192.72 106.49 194.89 104.86 Z" fill="#afbef7" />
<path d="M 329.99 112.58 C 340.27 113.91 350.12 114.98 360.20 117.85 C 365.02 119.39 369.80 121.02 374.60 122.60 C 385.18 126.44 395.14 132.35 404.59 138.41 C 419.86 149.18 433.35 162.70 443.78 178.23 C 456.66 197.86 465.18 220.12 467.71 243.52 C 469.53 256.73 469.96 270.68 467.55 283.84 C 464.10 307.41 454.35 330.15 440.41 349.41 C 436.68 354.31 432.65 358.99 428.71 363.72 C 435.56 372.72 442.59 381.58 449.33 390.66 C 454.93 386.69 460.24 382.31 465.68 378.12 C 500.11 422.75 534.36 467.57 568.77 512.22 C 570.62 514.69 571.64 517.38 572.89 520.16 C 579.18 532.47 580.09 547.24 573.72 559.69 C 565.30 577.00 544.97 587.38 526.02 583.79 C 519.17 582.70 513.38 579.44 507.83 575.46 C 503.10 571.76 499.70 567.54 496.50 562.50 C 463.23 518.94 429.59 475.59 396.39 431.99 C 401.61 427.79 406.92 423.70 412.27 419.66 C 405.25 410.52 398.23 401.39 391.18 392.27 C 383.73 396.18 376.30 399.76 368.18 402.10 C 356.60 406.48 344.67 408.12 332.47 409.68 C 324.28 410.38 315.72 410.34 307.52 409.68 C 295.37 408.17 283.47 406.42 271.96 402.05 C 260.98 398.89 251.04 393.58 241.35 387.64 C 232.56 382.56 224.63 375.69 217.16 368.85 C 195.31 347.84 180.11 319.83 174.38 290.07 C 171.73 275.42 170.38 260.02 172.17 245.19 C 175.43 214.85 188.44 185.52 208.70 162.70 C 217.26 153.27 226.86 144.52 237.51 137.48 C 247.91 130.96 259.18 124.50 271.00 121.01 C 276.68 119.18 282.14 117.08 288.05 116.06 C 302.05 113.36 315.70 111.34 329.99 112.58 Z" fill="#66b5cb" />
<path d="M 331.99 118.43 C 338.63 119.44 345.19 119.74 351.76 121.33 C 362.54 123.94 373.61 127.33 383.37 132.66 C 412.13 146.45 436.12 170.55 449.44 199.56 C 456.58 214.38 461.05 230.60 462.56 246.97 C 463.70 255.61 463.87 264.33 463.33 273.01 C 461.38 293.52 455.67 313.54 445.40 331.46 C 432.52 354.57 412.95 373.93 389.83 386.78 C 383.28 389.92 376.74 393.52 369.82 395.72 C 360.02 399.01 350.39 402.13 340.01 402.90 C 322.75 405.94 305.94 404.33 288.86 401.21 C 278.29 398.48 267.42 395.33 257.69 390.31 C 244.25 384.22 231.91 374.88 221.07 364.94 C 196.54 341.57 181.18 309.44 177.79 275.78 C 176.75 264.00 176.15 251.67 178.24 239.99 C 181.20 219.83 188.71 200.73 199.52 183.51 C 210.73 165.90 226.29 150.99 243.90 139.85 C 250.58 135.90 257.78 132.13 264.83 128.87 C 277.29 124.08 290.65 120.10 304.00 119.10 C 313.36 117.68 322.57 116.98 331.99 118.43 Z" fill="#ffffff" />
<path d="M 348.25 148.66 C 377.37 155.69 403.19 174.61 418.89 200.08 C 429.84 217.18 435.77 237.75 436.36 258.00 C 437.21 287.43 426.59 316.87 406.62 338.58 C 390.27 356.98 368.04 369.84 343.89 374.71 C 319.86 379.70 293.97 376.88 271.78 366.29 C 245.35 354.29 224.10 331.74 213.16 304.90 C 200.82 275.13 201.78 239.90 216.10 210.99 C 227.98 185.94 249.25 165.70 274.69 154.75 C 297.70 144.72 323.90 142.63 348.25 148.66 Z" fill="#66b5cb" />
<path d="M 338.34 152.30 C 329.44 155.19 320.51 157.15 311.87 160.82 C 300.38 165.80 289.41 171.81 279.48 179.49 C 257.08 196.91 239.72 221.02 231.26 248.19 C 226.16 263.86 224.04 280.55 224.84 297.00 C 225.17 305.23 226.96 313.15 227.85 321.33 C 210.74 295.25 205.49 262.11 213.93 232.04 C 222.18 201.51 243.96 175.09 272.65 161.64 C 292.70 151.77 316.35 148.51 338.34 152.30 Z" fill="#cfe6f2" />
<path d="M 338.34 152.30 C 345.73 153.40 353.07 155.25 360.02 158.01 C 386.98 168.03 409.37 189.60 421.29 215.68 C 426.82 228.46 430.20 242.07 430.79 256.00 C 431.73 274.81 427.71 293.58 419.48 310.49 C 411.50 326.06 400.32 339.86 386.09 350.12 C 354.71 373.72 310.78 378.32 275.15 361.88 C 255.86 353.45 239.14 339.10 227.85 321.33 C 226.96 313.15 225.17 305.23 224.84 297.00 C 224.04 280.55 226.16 263.86 231.26 248.19 C 239.72 221.02 257.08 196.91 279.48 179.49 C 289.41 171.81 300.38 165.80 311.87 160.82 C 320.51 157.15 329.44 155.19 338.34 152.30 Z" fill="#ebf5fa" />
<path d="M 126.45 192.48 C 133.10 191.35 141.72 193.57 145.18 199.86 C 147.29 203.38 149.05 207.83 148.62 211.99 C 148.19 216.56 146.65 221.02 142.85 223.86 C 139.24 226.62 134.62 228.96 130.00 229.10 C 123.57 229.30 116.94 225.80 113.98 219.99 C 110.22 213.06 111.21 204.16 116.03 198.00 C 118.60 195.01 122.64 193.20 126.45 192.48 Z" fill="#e2d399" />
<path d="M 127.21 200.25 C 132.38 199.19 137.00 202.49 139.01 207.08 C 140.43 211.23 138.79 215.74 135.54 218.51 C 130.94 222.71 122.37 220.70 119.92 215.05 C 116.93 209.29 120.83 201.44 127.21 200.25 Z" fill="#ffffff" />
<path d="M 274.26 236.30 C 277.77 234.78 281.83 235.87 284.12 238.91 C 286.90 242.43 286.07 247.84 282.47 250.47 C 278.53 253.42 272.50 252.14 270.28 247.70 C 268.04 243.49 269.93 238.21 274.26 236.30 Z" fill="#66b5cb" />
<path d="M 360.21 236.26 C 364.20 234.56 368.88 236.33 370.79 240.19 C 372.78 244.14 371.16 249.26 367.15 251.19 C 362.94 253.29 357.74 251.49 355.88 247.15 C 354.03 242.91 356.03 238.11 360.21 236.26 Z" fill="#66b5cb" />
<path d="M 331.03 270.93 C 336.05 272.53 340.32 276.40 343.25 280.69 C 346.34 285.36 347.27 290.51 347.91 295.96 C 346.08 295.97 344.26 295.97 342.43 295.97 C 341.11 289.28 338.54 283.20 333.07 278.87 C 327.50 274.23 318.87 273.59 312.88 277.83 C 306.58 282.00 303.68 288.81 302.20 295.98 C 300.36 295.99 298.52 296.00 296.68 296.01 C 297.43 287.53 300.46 279.63 307.35 274.31 C 313.82 269.19 323.37 268.30 331.03 270.93 Z" fill="#66b5cb" />
<path d="M 174.38 290.07 C 180.11 319.83 195.31 347.84 217.16 368.85 C 224.63 375.69 232.56 382.56 241.35 387.64 C 251.04 393.58 260.98 398.89 271.96 402.05 C 283.47 406.42 295.37 408.17 307.52 409.68 C 315.72 410.34 324.28 410.38 332.47 409.68 C 344.67 408.12 356.60 406.48 368.18 402.10 C 376.30 399.76 383.73 396.18 391.18 392.27 C 398.23 401.39 405.25 410.52 412.27 419.66 C 406.92 423.70 401.61 427.79 396.39 431.99 C 429.59 475.59 463.23 518.94 496.50 562.50 C 499.70 567.54 503.10 571.76 507.83 575.46 C 506.48 576.61 505.24 577.81 504.37 579.37 C 497.89 590.62 493.59 602.50 489.83 614.88 C 485.70 628.90 485.40 642.91 482.27 657.13 C 479.81 667.56 474.54 677.39 467.24 685.23 C 462.14 690.73 457.49 696.05 451.19 700.23 C 442.86 705.80 432.83 709.94 423.01 711.88 C 401.62 715.66 380.05 711.29 360.41 702.59 C 350.42 698.71 341.83 692.84 332.81 687.20 C 326.64 683.15 320.74 678.63 314.94 674.08 C 303.26 664.08 290.96 653.64 281.80 641.20 C 270.56 626.45 261.94 608.72 251.97 593.02 C 246.35 584.43 239.95 575.56 232.12 568.85 C 223.07 560.90 213.63 553.52 202.73 548.28 C 189.36 541.27 174.84 536.40 159.99 533.78 C 149.33 532.22 138.64 530.82 128.01 529.09 C 119.18 527.64 110.60 524.59 102.80 520.21 C 89.05 512.54 78.23 501.74 68.56 489.45 C 57.13 475.34 47.84 459.72 44.52 441.63 C 42.30 428.53 41.83 414.66 44.49 401.59 C 50.91 368.32 69.98 337.53 96.28 316.27 C 107.68 306.92 120.91 299.43 134.99 294.97 C 147.70 291.22 161.15 289.69 174.38 290.07 Z" fill="#e5f2f8" />
<path d="M 424.72 367.60 C 431.61 376.35 438.34 385.23 445.12 394.07 C 435.60 401.46 426.20 409.04 416.49 416.17 C 409.66 407.25 402.80 398.36 395.94 389.46 C 406.64 383.62 415.83 375.85 424.72 367.60 Z" fill="#ffffff" />
<path d="M 464.86 386.39 C 469.37 392.36 474.01 398.22 478.52 404.19 C 458.43 420.14 438.30 436.03 418.17 451.92 C 413.38 445.55 408.35 439.36 403.72 432.87 C 424.09 417.37 444.39 401.75 464.86 386.39 Z" fill="#feeda2" />
<path d="M 481.82 408.68 C 509.25 444.01 536.51 479.90 563.88 515.35 C 560.96 518.00 557.85 520.40 554.68 522.73 C 537.42 535.91 520.42 549.46 503.01 562.43 C 475.91 527.02 448.61 491.68 421.58 456.23 C 441.66 440.41 461.69 424.41 481.82 408.68 Z" fill="#ffffff" />
<path d="M 478.46 431.37 C 498.75 457.69 519.14 483.94 539.50 510.21 C 538.06 511.33 536.62 512.45 535.19 513.57 C 514.81 487.37 494.54 461.10 474.19 434.88 C 474.87 434.33 475.55 433.77 476.22 433.22 C 476.97 432.60 477.71 431.99 478.46 431.37 Z" fill="#66b5cb" />
<path d="M 463.12 443.73 C 465.47 446.42 467.60 449.35 469.80 452.17 C 487.89 475.54 505.99 498.89 524.08 522.26 C 522.66 523.42 521.24 524.58 519.82 525.74 C 499.54 499.42 479.10 473.24 458.83 446.91 C 460.25 445.83 461.66 444.75 463.12 443.73 Z" fill="#66b5cb" />
<path d="M 446.50 456.23 C 466.78 482.42 487.11 508.71 507.44 534.87 C 505.99 536.00 504.54 537.12 503.10 538.25 C 482.72 512.04 462.51 485.69 442.04 459.55 C 443.51 458.43 444.98 457.28 446.50 456.23 Z" fill="#66b5cb" />
<path d="M 566.12 520.85 C 573.85 530.74 574.11 544.08 569.30 555.32 C 563.56 569.37 549.17 578.92 534.00 578.89 C 523.20 579.11 513.92 574.02 506.38 566.63 C 526.34 551.45 546.08 535.91 566.12 520.85 Z" fill="#ffffff" />
<path d="M 144.35 578.43 C 154.75 576.08 166.13 578.92 175.60 583.39 C 189.16 589.87 201.07 599.92 209.94 612.04 C 215.38 619.55 219.91 628.48 221.41 637.69 C 222.42 644.39 221.80 651.22 217.93 656.95 C 214.10 662.57 207.65 665.51 201.01 666.10 C 190.74 667.06 180.71 663.93 171.62 659.38 C 159.74 653.32 149.26 644.46 141.08 633.95 C 135.26 626.33 130.27 617.32 128.36 607.86 C 127.10 601.19 127.24 593.80 130.88 587.84 C 133.84 582.90 138.83 579.76 144.35 578.43 Z" fill="#e5f1f7" />
</svg>