<?xml version="1.0" encoding="UTF-8" standalone="no"?>
<!DOCTYPE svg PUBLIC "-//W3C//DTD SVG 1.1//EN" "http://www.w3.org/Graphics/SVG/1.1/DTD/svg11.dtd">
<svg xmlns="http://www.w3.org/2000/svg" version="1.1" viewBox="0 0 64 64" width="64.0pt" height="64.0pt">
<path d="M 34.02 0.00 L 37.56 0.00 L 38.57 0.18 L 39.37 0.37 C 46.56 2.41 50.51 8.05 50.87 15.42 C 49.45 15.38 48.03 15.38 46.62 15.40 C 45.97 12.76 45.73 10.27 43.86 8.15 C 41.02 4.78 36.25 3.55 32.13 5.12 C 28.07 6.66 25.39 10.61 25.42 14.95 C 25.35 19.56 25.20 24.23 25.55 28.83 C 25.84 31.93 27.98 33.32 30.04 35.32 C 25.45 35.33 20.87 35.34 16.29 35.34 C 18.28 33.40 20.43 31.98 20.76 29.00 C 21.24 23.99 20.89 18.88 20.91 13.84 C 19.18 14.93 17.46 16.05 15.73 17.14 L 13.27 16.48 C 15.78 14.53 18.30 12.75 21.20 11.40 C 23.48 5.05 27.32 1.34 34.02 0.00 Z" fill="#4c8056" />
<path d="M 46.62 15.40 C 48.03 15.38 49.45 15.38 50.87 15.42 C 53.47 15.84 55.98 16.12 57.72 18.32 C 59.59 20.75 59.41 23.67 59.60 26.56 C 57.47 26.40 55.36 26.17 53.26 25.79 C 51.25 24.35 49.87 22.44 48.48 20.44 C 47.17 22.54 45.86 24.41 43.75 25.78 C 41.67 26.19 39.58 26.41 37.47 26.54 C 37.69 23.71 37.51 20.74 39.34 18.37 C 41.09 16.08 43.94 15.74 46.62 15.40 Z" fill="#24ae5f" />
<path d="M 13.27 16.48 L 15.73 17.14 C 15.34 19.59 15.52 22.33 14.62 24.64 C 12.80 27.97 9.35 28.48 5.97 29.19 C 5.73 26.30 5.02 23.18 6.58 20.54 C 7.98 18.16 10.87 17.44 13.27 16.48 Z" fill="#4fba6f" />
<path d="M 48.48 20.44 C 49.87 22.44 51.25 24.35 53.26 25.79 C 52.78 29.59 51.32 31.86 48.83 34.66 C 45.53 32.09 44.55 29.80 43.75 25.78 C 45.86 24.41 47.17 22.54 48.48 20.44 Z" fill="#4fba6f" />
<path d="M 16.29 35.34 C 20.87 35.34 25.45 35.33 30.04 35.32 C 33.95 35.31 37.86 35.33 41.77 35.40 C 41.87 37.13 41.96 38.85 42.04 40.57 C 29.58 40.65 17.04 40.18 4.58 40.82 C 4.51 39.04 4.45 37.25 4.41 35.47 C 8.37 35.29 12.33 35.30 16.29 35.34 Z" fill="#e57e25" />
<path d="M 6.65 40.90 C 17.62 40.50 28.72 40.55 39.70 40.87 C 38.74 46.09 37.69 51.29 36.76 56.52 C 36.25 59.16 36.01 61.68 34.52 64.00 L 11.58 64.00 C 9.00 56.62 8.36 48.53 6.65 40.90 Z" fill="#f29c1f" />
<path d="M 54.20 46.56 C 54.45 49.51 55.19 52.69 53.27 55.26 C 51.34 57.69 48.54 57.96 45.72 58.71 C 45.48 55.95 44.77 52.90 46.37 50.41 C 48.22 47.66 51.24 47.33 54.20 46.56 Z" fill="#4fba6f" />
<path d="M 14.60 54.14 C 14.99 55.52 15.33 56.92 15.68 58.32 C 17.25 58.50 18.82 58.68 20.39 58.90 C 19.92 59.66 19.39 60.21 18.80 60.55 C 16.93 60.60 13.63 61.62 13.38 58.87 C 13.27 57.15 11.67 53.84 14.60 54.14 Z" fill="#ffffff" />
</svg>