<?xml version="1.0" encoding="utf-8"?>
<svg version="1.1" id="Layer_1" xmlns="http://www.w3.org/2000/svg" xmlns:xlink="http://www.w3.org/1999/xlink" x="0px" y="0px"
	 viewBox="0 0 64 64" style="enable-background:new 0 0 64 64;" xml:space="preserve">
<style type="text/css">
	.st0{fill:#239345;}
	.st1{fill:#10AB31;}
	.st2{fill:#FFFFFF;}
</style>
<g>
	<g>
		<path class="st0" d="M62.6,12.9C61.4,7.4,56.2,2.4,50.7,1.4C47.4,0.7,38.1-0.1,32,0c-6.1-0.1-15.4,0.7-18.7,1.4
			C7.8,2.4,2.6,7.4,1.4,12.9C0.7,16.2,0,20.7,0,26.8c0,6.1,0.7,10.6,1.4,13.9c1.2,5.4,6.5,10.4,11.9,11.5c1.8,0.4,5.3,0.8,9.1,1
			c0.4,0.7,0.9,1.4,1.4,2.2c2,3.1,3.6,5.2,4.8,6.7c2,2.5,4.8,2.5,6.8,0c1.2-1.5,2.7-3.6,4.8-6.7c0.5-0.8,1-1.5,1.4-2.2
			c3.8-0.3,7.4-0.7,9.1-1c5.4-1.1,10.7-6,11.9-11.5c0.7-3.3,1.4-7.8,1.4-13.9C64,20.7,63.3,16.2,62.6,12.9L62.6,12.9z"/>
		<path class="st1" d="M32,0c-6.1-0.1-15.4,0.7-18.7,1.4C7.8,2.4,2.6,7.4,1.4,12.9C0.7,16.2,0,20.7,0,26.8c0,6.1,0.7,10.6,1.4,13.9
			c0.7,3.2,2.8,6.2,5.6,8.4c2.7,0.6,5.4,1,8.1,1c19.2,0,34.8-15.6,34.8-34.8c0-5-1.1-9.9-3.2-14.5C42.4,0.3,36.4-0.1,32,0z"/>
		<path class="st2" d="M35.5,45.4c-0.2,0.8-0.8,1.4-1.6,1.6c-1.3,0.2-2.6,0.2-3.9,0c-0.8-0.2-1.4-0.8-1.6-1.6
			c-0.2-1.3-0.2-2.6,0-3.9c0.2-0.8,0.8-1.4,1.6-1.6c1.3-0.2,2.6-0.2,3.9,0c0.8,0.2,1.4,0.8,1.6,1.6C35.7,42.8,35.7,44.1,35.5,45.4
			L35.5,45.4z M43.1,24.9c-1,1.4-2.4,2.6-4.6,3.9c-2.7,1.7-3.1,2.4-3.1,3.7V33c0,1.9-1.5,3.5-3.4,3.5c-1.9,0-3.5-1.5-3.5-3.4
			c0,0,0-0.1,0-0.1v-1.2c0-1.6,0.4-2.9,1.2-4.1c0.8-1.1,2-2.2,3.7-3.2c3.2-1.9,3.8-3,3.8-4.4c0-1.8-1.5-2.9-3.9-2.9
			c-2.6,0-4.2,1.2-5,3.5c-0.5,1.5-1.9,2.6-3.5,2.5c-0.1,0-0.2,0-0.3,0c-1.1-0.1-2.2-0.7-2.8-1.6c-0.6-0.9-0.8-2.1-0.5-3.2
			c0.7-2.4,2.3-4.5,4.4-5.9c2.1-1.4,4.7-2.2,7.6-2.2c3,0,5.8,1,7.9,2.7c2.1,1.8,3.3,4.3,3.3,7C44.6,21.9,44.1,23.5,43.1,24.9
			L43.1,24.9z"/>
	</g>
</g>
</svg>
